<svg width="64mm" height="64mm" version="1.1" viewBox="0 0 64 64" xmlns="http://www.w3.org/2000/svg">
 <g>
  <circle cx="32" cy="32" r="32" fill="#23e5db" stroke-width=".26458"/>
  <g>
   <path d="m19.713 21.248a10.906 10.906 0 0 0-10.906 10.906 10.906 10.906 0 0 0 10.906 10.906 10.906 10.906 0 0 0 10.906-10.906 10.906 10.906 0 0 0-10.906-10.906zm0 6.9112a3.9947 3.9947 0 0 1 3.9946 3.9946 3.9947 3.9947 0 0 1-3.9946 3.9946 3.9947 3.9947 0 0 1-3.9946-3.9946 3.9947 3.9947 0 0 1 3.9946-3.9946z" stroke-width=".24686"/>
   <rect x="33.502" y="18.257" width="6" height="28.137" stroke-width=".23889"/>
   <path transform="scale(.26458)" d="m156.98 93.072v12.291l15.486 15.484-15.486 15.486v12.295h55.557v-55.557h-12.295l-15.484 15.484-15.482-15.484zm55.555 12.291v30.971l-15.484-15.486zm-27.777 27.777 15.486 15.486h-30.971z"/>
  </g>
 </g>
</svg>
